  0
SECTION
  2
HEADER
  9
$ANGBASE
  50
0.0
  9
$ANGDIR
  70
1
  9
$MEASUREMENT
  70
0
  0
ENDSEC
  0
SECTION
  2
TABLES
  0
TABLE
  2
LTYPE
  70
4
  0
LTYPE
  5
40F
  2
CONTINUOUS
  70
0
  3
Solid line
  72
65
  73
0
  40
0.0
  0
LTYPE
  5
410
  2
DASHDOT
 70
0
  3
Dash Dot ____ _ ____ _
 72
65
 73
4
 40
2.0
 49
1.25
 49
-0.25
 49
0.25
 49
-0.25
  0
LTYPE
  5
411
  2
DASHED
 70
0
  3
Dashed __ __ __ __ __
 72
65
 73
2
 40
0.75
 49
0.5
 49
-0.25
  0
LTYPE
  5
43B
  2
DOTTED
 70
0
  3
Dotted .  .  .  .
 72
65
 73
2
 40
0.2
 49
0.0
 49
-0.2
  0
ENDTAB
  0
TABLE
  2
STYLE
  70
4
  0
STYLE
  2
KICAD
  70
0
  40
0
  41
1
  42
1
  50
0
  71
0
  3
isocp.shx
  0
STYLE
  2
KICADB
  70
0
  40
0
  41
1
  42
1
  50
0
  71
0
  3
isocp.shx
  0
STYLE
  2
KICADI
  70
0
  40
0
  41
1
  42
1
  50
15
  71
0
  3
isocp.shx
  0
STYLE
  2
KICADBI
  70
0
  40
0
  41
1
  42
1
  50
15
  71
0
  3
isocp.shx
  0
ENDTAB
  0
TABLE
  2
LAYER
  70
1
  0
LAYER
  2
BLACK
  70
0
  62
7
  6
CONTINUOUS
  0
ENDTAB
  0
ENDSEC
  0
SECTION
  2
ENTITIES
0
LINE
8
BLACK
6
CONTINUOUS
10
5.9448818897637796
20
-3.6210629921259843
11
5.955288031496063
21
-3.6217450393700785
0
LINE
8
BLACK
6
CONTINUOUS
10
5.955288031496063
20
-3.6217450393700785
11
5.965516102362205
21
-3.623779527559055
0
LINE
8
BLACK
6
CONTINUOUS
10
5.965516102362205
20
-3.623779527559055
11
5.9753911023622042
21
-3.6271316535433069
0
LINE
8
BLACK
6
CONTINUOUS
10
5.9753911023622042
20
-3.6271316535433069
11
5.9847440944881889
21
-3.6317440551181099
0
LINE
8
BLACK
6
CONTINUOUS
10
5.9847440944881889
20
-3.6317440551181099
11
5.9934150393700785
21
-3.6375377559055115
0
LINE
8
BLACK
6
CONTINUOUS
10
5.9934150393700785
20
-3.6375377559055115
11
6.0012555511811021
21
-3.6444137401574803
0
LINE
8
BLACK
6
CONTINUOUS
10
6.0012555511811021
20
-3.6444137401574803
11
6.0081315354330709
21
-3.652254251968504
0
LINE
8
BLACK
6
CONTINUOUS
10
6.0081315354330709
20
-3.652254251968504
11
6.013925236220472
21
-3.6609251968503935
0
LINE
8
BLACK
6
CONTINUOUS
10
6.013925236220472
20
-3.6609251968503935
11
6.0185376377952755
21
-3.6702781889763778
0
LINE
8
BLACK
6
CONTINUOUS
10
6.0185376377952755
20
-3.6702781889763778
11
6.0218897637795274
21
-3.6801531889763779
0
LINE
8
BLACK
6
CONTINUOUS
10
6.0218897637795274
20
-3.6801531889763779
11
6.0239242519685039
21
-3.6903812598425194
0
LINE
8
BLACK
6
CONTINUOUS
10
6.0239242519685039
20
-3.6903812598425194
11
6.0246062992125982
21
-3.7007874015748032
0
LINE
8
BLACK
6
CONTINUOUS
10
6.0246062992125982
20
-3.7007874015748032
11
6.0246062992125982
21
-5.5118110236220472
0
LINE
8
BLACK
6
CONTINUOUS
10
6.0246062992125982
20
-5.5118110236220472
11
6.0239242519685039
21
-5.5222171653543306
0
LINE
8
BLACK
6
CONTINUOUS
10
6.0239242519685039
20
-5.5222171653543306
11
6.0218897637795274
21
-5.5324452362204726
0
LINE
8
BLACK
6
CONTINUOUS
10
6.0218897637795274
20
-5.5324452362204726
11
6.0185376377952755
21
-5.5423202362204727
0
LINE
8
BLACK
6
CONTINUOUS
10
6.0185376377952755
20
-5.5423202362204727
11
6.013925236220472
21
-5.5516732283464565
0
LINE
8
BLACK
6
CONTINUOUS
10
6.013925236220472
20
-5.5516732283464565
11
6.0081315354330709
21
-5.5603441732283461
0
LINE
8
BLACK
6
CONTINUOUS
10
6.0081315354330709
20
-5.5603441732283461
11
6.0012555511811021
21
-5.5681846850393697
0
LINE
8
BLACK
6
CONTINUOUS
10
6.0012555511811021
20
-5.5681846850393697
11
5.9934150393700785
21
-5.5750606692913385
0
LINE
8
BLACK
6
CONTINUOUS
10
5.9934150393700785
20
-5.5750606692913385
11
5.9847440944881889
21
-5.5808543700787396
0
LINE
8
BLACK
6
CONTINUOUS
10
5.9847440944881889
20
-5.5808543700787396
11
5.9753911023622042
21
-5.5854667716535431
0
LINE
8
BLACK
6
CONTINUOUS
10
5.9753911023622042
20
-5.5854667716535431
11
5.965516102362205
21
-5.588818897637795
0
LINE
8
BLACK
6
CONTINUOUS
10
5.965516102362205
20
-5.588818897637795
11
5.955288031496063
21
-5.5908533858267715
0
LINE
8
BLACK
6
CONTINUOUS
10
5.955288031496063
20
-5.5908533858267715
11
5.9448818897637796
21
-5.5915354330708658
0
LINE
8
BLACK
6
CONTINUOUS
10
5.9448818897637796
20
-5.5915354330708658
11
1.9291338582677164
21
-5.5915354330708658
0
LINE
8
BLACK
6
CONTINUOUS
10
1.9291338582677164
20
-5.5915354330708658
11
1.9187277165354331
21
-5.5908533858267715
0
LINE
8
BLACK
6
CONTINUOUS
10
1.9187277165354331
20
-5.5908533858267715
11
1.9084996456692913
21
-5.588818897637795
0
LINE
8
BLACK
6
CONTINUOUS
10
1.9084996456692913
20
-5.588818897637795
11
1.8986246456692912
21
-5.5854667716535431
0
LINE
8
BLACK
6
CONTINUOUS
10
1.8986246456692912
20
-5.5854667716535431
11
1.889271653543307
21
-5.5808543700787396
0
LINE
8
BLACK
6
CONTINUOUS
10
1.889271653543307
20
-5.5808543700787396
11
1.8806007086614174
21
-5.5750606692913385
0
LINE
8
BLACK
6
CONTINUOUS
10
1.8806007086614174
20
-5.5750606692913385
11
1.8727601968503937
21
-5.5681846850393697
0
LINE
8
BLACK
6
CONTINUOUS
10
1.8727601968503937
20
-5.5681846850393697
11
1.8658842125984252
21
-5.5603441732283461
0
LINE
8
BLACK
6
CONTINUOUS
10
1.8658842125984252
20
-5.5603441732283461
11
1.8600905118110236
21
-5.5516732283464565
0
LINE
8
BLACK
6
CONTINUOUS
10
1.8600905118110236
20
-5.5516732283464565
11
1.8554781102362203
21
-5.5423202362204727
0
LINE
8
BLACK
6
CONTINUOUS
10
1.8554781102362203
20
-5.5423202362204727
11
1.8521259842519684
21
-5.5324452362204726
0
LINE
8
BLACK
6
CONTINUOUS
10
1.8521259842519684
20
-5.5324452362204726
11
1.8500914960629922
21
-5.5222171653543306
0
LINE
8
BLACK
6
CONTINUOUS
10
1.8500914960629922
20
-5.5222171653543306
11
1.8494094488188977
21
-5.5118110236220472
0
LINE
8
BLACK
6
CONTINUOUS
10
1.8494094488188977
20
-5.5118110236220472
11
1.8494094488188977
21
-3.7007874015748032
0
LINE
8
BLACK
6
CONTINUOUS
10
1.8494094488188977
20
-3.7007874015748032
11
1.8500914960629922
21
-3.6903812598425194
0
LINE
8
BLACK
6
CONTINUOUS
10
1.8500914960629922
20
-3.6903812598425194
11
1.8521259842519684
21
-3.6801531889763779
0
LINE
8
BLACK
6
CONTINUOUS
10
1.8521259842519684
20
-3.6801531889763779
11
1.8554781102362203
21
-3.6702781889763778
0
LINE
8
BLACK
6
CONTINUOUS
10
1.8554781102362203
20
-3.6702781889763778
11
1.8600905118110236
21
-3.6609251968503935
0
LINE
8
BLACK
6
CONTINUOUS
10
1.8600905118110236
20
-3.6609251968503935
11
1.8658842125984252
21
-3.652254251968504
0
LINE
8
BLACK
6
CONTINUOUS
10
1.8658842125984252
20
-3.652254251968504
11
1.8727601968503937
21
-3.6444137401574803
0
LINE
8
BLACK
6
CONTINUOUS
10
1.8727601968503937
20
-3.6444137401574803
11
1.8806007086614174
21
-3.6375377559055115
0
LINE
8
BLACK
6
CONTINUOUS
10
1.8806007086614174
20
-3.6375377559055115
11
1.889271653543307
21
-3.6317440551181099
0
LINE
8
BLACK
6
CONTINUOUS
10
1.889271653543307
20
-3.6317440551181099
11
1.8986246456692912
21
-3.6271316535433069
0
LINE
8
BLACK
6
CONTINUOUS
10
1.8986246456692912
20
-3.6271316535433069
11
1.9084996456692913
21
-3.623779527559055
0
LINE
8
BLACK
6
CONTINUOUS
10
1.9084996456692913
20
-3.623779527559055
11
1.9187277165354331
21
-3.6217450393700785
0
LINE
8
BLACK
6
CONTINUOUS
10
1.9187277165354331
20
-3.6217450393700785
11
1.9291338582677164
21
-3.6210629921259843
0
LINE
8
BLACK
6
CONTINUOUS
10
1.9291338582677164
20
-3.6210629921259843
11
5.9448818897637796
21
-3.6210629921259843
0
LINE
8
BLACK
6
CONTINUOUS
10
1.9291338582677164
20
-3.6230314960629921
11
1.9240374803149607
21
-3.6230314960629921
0
LINE
8
BLACK
6
CONTINUOUS
10
1.9240374803149607
20
-3.6230314960629921
11
1.9139318897637796
21
-3.6243619291338582
0
LINE
8
BLACK
6
CONTINUOUS
10
1.9139318897637796
20
-3.6243619291338582
11
1.9040864173228347
21
-3.6269999999999998
0
LINE
8
BLACK
6
CONTINUOUS
10
1.9040864173228347
20
-3.6269999999999998
11
1.8946694881889763
21
-3.6309005905511809
0
LINE
8
BLACK
6
CONTINUOUS
10
1.8946694881889763
20
-3.6309005905511809
11
1.8858422834645669
21
-3.6359970078740158
0
LINE
8
BLACK
6
CONTINUOUS
10
1.8858422834645669
20
-3.6359970078740158
11
1.8777558267716534
21
-3.6422019685039371
0
LINE
8
BLACK
6
CONTINUOUS
10
1.8777558267716534
20
-3.6422019685039371
11
1.8705484251968503
21
-3.64940937007874
0
LINE
8
BLACK
6
CONTINUOUS
10
1.8705484251968503
20
-3.64940937007874
11
1.864343464566929
21
-3.6574958267716533
0
LINE
8
BLACK
6
CONTINUOUS
10
1.864343464566929
20
-3.6574958267716533
11
1.8592470472440945
21
-3.6663230314960629
0
LINE
8
BLACK
6
CONTINUOUS
10
1.8592470472440945
20
-3.6663230314960629
11
1.8553464566929134
21
-3.675739960629921
0
LINE
8
BLACK
6
CONTINUOUS
10
1.8553464566929134
20
-3.675739960629921
11
1.8527083858267717
21
-3.6855854330708659
0
LINE
8
BLACK
6
CONTINUOUS
10
1.8527083858267717
20
-3.6855854330708659
11
1.8513779527559056
21
-3.695691023622047
0
LINE
8
BLACK
6
CONTINUOUS
10
1.8513779527559056
20
-3.695691023622047
11
1.8513779527559056
21
-3.7007874015748032
0
LINE
8
BLACK
6
CONTINUOUS
10
1.8513779527559056
20
-3.7007874015748032
11
1.8513779527559056
21
-5.5118110236220472
0
LINE
8
BLACK
6
CONTINUOUS
10
1.8513779527559056
20
-5.5118110236220472
11
1.8513779527559056
21
-5.5169074015748034
0
LINE
8
BLACK
6
CONTINUOUS
10
1.8513779527559056
20
-5.5169074015748034
11
1.8527083858267717
21
-5.5270129921259841
0
LINE
8
BLACK
6
CONTINUOUS
10
1.8527083858267717
20
-5.5270129921259841
11
1.8553464566929134
21
-5.5368584645669294
0
LINE
8
BLACK
6
CONTINUOUS
10
1.8553464566929134
20
-5.5368584645669294
11
1.8592470472440945
21
-5.5462753937007871
0
LINE
8
BLACK
6
CONTINUOUS
10
1.8592470472440945
20
-5.5462753937007871
11
1.864343464566929
21
-5.5551025984251972
0
LINE
8
BLACK
6
CONTINUOUS
10
1.864343464566929
20
-5.5551025984251972
11
1.8705484251968503
21
-5.5631890551181105
0
LINE
8
BLACK
6
CONTINUOUS
10
1.8705484251968503
20
-5.5631890551181105
11
1.8777558267716534
21
-5.5703964566929134
0
LINE
8
BLACK
6
CONTINUOUS
10
1.8777558267716534
20
-5.5703964566929134
11
1.8858422834645669
21
-5.5766014173228342
0
LINE
8
BLACK
6
CONTINUOUS
10
1.8858422834645669
20
-5.5766014173228342
11
1.8946694881889763
21
-5.5816978346456692
0
LINE
8
BLACK
6
CONTINUOUS
10
1.8946694881889763
20
-5.5816978346456692
11
1.9040864173228347
21
-5.5855984251968502
0
LINE
8
BLACK
6
CONTINUOUS
10
1.9040864173228347
20
-5.5855984251968502
11
1.9139318897637796
21
-5.5882364960629918
0
LINE
8
BLACK
6
CONTINUOUS
10
1.9139318897637796
20
-5.5882364960629918
11
1.9240374803149607
21
-5.5895669291338583
0
LINE
8
BLACK
6
CONTINUOUS
10
1.9240374803149607
20
-5.5895669291338583
11
1.9291338582677164
21
-5.5895669291338583
0
LINE
8
BLACK
6
CONTINUOUS
10
1.9291338582677164
20
-5.5895669291338583
11
5.9448818897637796
21
-5.5895669291338583
0
LINE
8
BLACK
6
CONTINUOUS
10
5.9448818897637796
20
-5.5895669291338583
11
5.9499782677165349
21
-5.5895669291338583
0
LINE
8
BLACK
6
CONTINUOUS
10
5.9499782677165349
20
-5.5895669291338583
11
5.9600838582677165
21
-5.5882364960629918
0
LINE
8
BLACK
6
CONTINUOUS
10
5.9600838582677165
20
-5.5882364960629918
11
5.9699293307086609
21
-5.5855984251968502
0
LINE
8
BLACK
6
CONTINUOUS
10
5.9699293307086609
20
-5.5855984251968502
11
5.9793462598425196
21
-5.5816978346456692
0
LINE
8
BLACK
6
CONTINUOUS
10
5.9793462598425196
20
-5.5816978346456692
11
5.9881734645669287
21
-5.5766014173228342
0
LINE
8
BLACK
6
CONTINUOUS
10
5.9881734645669287
20
-5.5766014173228342
11
5.996259921259842
21
-5.5703964566929134
0
LINE
8
BLACK
6
CONTINUOUS
10
5.996259921259842
20
-5.5703964566929134
11
6.0034673228346458
21
-5.5631890551181105
0
LINE
8
BLACK
6
CONTINUOUS
10
6.0034673228346458
20
-5.5631890551181105
11
6.0096722834645666
21
-5.5551025984251972
0
LINE
8
BLACK
6
CONTINUOUS
10
6.0096722834645666
20
-5.5551025984251972
11
6.0147687007874016
21
-5.5462753937007871
0
LINE
8
BLACK
6
CONTINUOUS
10
6.0147687007874016
20
-5.5462753937007871
11
6.0186692913385826
21
-5.5368584645669294
0
LINE
8
BLACK
6
CONTINUOUS
10
6.0186692913385826
20
-5.5368584645669294
11
6.0213073622047242
21
-5.5270129921259841
0
LINE
8
BLACK
6
CONTINUOUS
10
6.0213073622047242
20
-5.5270129921259841
11
6.0226377952755907
21
-5.5169074015748034
0
LINE
8
BLACK
6
CONTINUOUS
10
6.0226377952755907
20
-5.5169074015748034
11
6.0226377952755907
21
-5.5118110236220472
0
LINE
8
BLACK
6
CONTINUOUS
10
6.0226377952755907
20
-5.5118110236220472
11
6.0226377952755907
21
-3.7007874015748032
0
LINE
8
BLACK
6
CONTINUOUS
10
6.0226377952755907
20
-3.7007874015748032
11
6.0226377952755907
21
-3.695691023622047
0
LINE
8
BLACK
6
CONTINUOUS
10
6.0226377952755907
20
-3.695691023622047
11
6.0213073622047242
21
-3.6855854330708659
0
LINE
8
BLACK
6
CONTINUOUS
10
6.0213073622047242
20
-3.6855854330708659
11
6.0186692913385826
21
-3.675739960629921
0
LINE
8
BLACK
6
CONTINUOUS
10
6.0186692913385826
20
-3.675739960629921
11
6.0147687007874016
21
-3.6663230314960629
0
LINE
8
BLACK
6
CONTINUOUS
10
6.0147687007874016
20
-3.6663230314960629
11
6.0096722834645666
21
-3.6574958267716533
0
LINE
8
BLACK
6
CONTINUOUS
10
6.0096722834645666
20
-3.6574958267716533
11
6.0034673228346458
21
-3.64940937007874
0
LINE
8
BLACK
6
CONTINUOUS
10
6.0034673228346458
20
-3.64940937007874
11
5.996259921259842
21
-3.6422019685039371
0
LINE
8
BLACK
6
CONTINUOUS
10
5.996259921259842
20
-3.6422019685039371
11
5.9881734645669287
21
-3.6359970078740158
0
LINE
8
BLACK
6
CONTINUOUS
10
5.9881734645669287
20
-3.6359970078740158
11
5.9793462598425196
21
-3.6309005905511809
0
LINE
8
BLACK
6
CONTINUOUS
10
5.9793462598425196
20
-3.6309005905511809
11
5.9699293307086609
21
-3.6269999999999998
0
LINE
8
BLACK
6
CONTINUOUS
10
5.9699293307086609
20
-3.6269999999999998
11
5.9600838582677165
21
-3.6243619291338582
0
LINE
8
BLACK
6
CONTINUOUS
10
5.9600838582677165
20
-3.6243619291338582
11
5.9499782677165349
21
-3.6230314960629921
0
LINE
8
BLACK
6
CONTINUOUS
10
5.9499782677165349
20
-3.6230314960629921
11
5.9448818897637796
21
-3.6230314960629921
0
LINE
8
BLACK
6
CONTINUOUS
10
5.9448818897637796
20
-3.6230314960629921
11
1.9291338582677164
21
-3.6230314960629921
  0
ENDSEC
  0
EOF
